PathFileType	4	(X/Y/Z)	C:\Users\WrightLab\Desktop\Jo\P4V18.trc
DataRate	CameraRate	NumFrames	NumMarkers	Units	OrigDataRate	OrigDataStartFrame	OrigNumFrames
100.00	100.00	       14	19	mm	100.00	377	       502
Frame#	Time	Headset_Front			Headset_Back			Headset_Left			Headset_Right			Left_Shoulder			Right_Shoulder			Sternum			C7			Left Elbow			Right Elbow			Left Wrist			Right Wrist			Left ASIS			Right ASIS			S2			Left Knee			Right Knee			Left Ankle			Right Ankle			
		X1	Y1	Z1	X2	Y2	Z2	X3	Y3	Z3	X4	Y4	Z4	X5	Y5	Z5	X6	Y6	Z6	X7	Y7	Z7	X8	Y8	Z8	X9	Y9	Z9	X10	Y10	Z10	X11	Y11	Z11	X12	Y12	Z12	X13	Y13	Z13	X14	Y14	Z14	X15	Y15	Z15	X16	Y16	Z16	X17	Y17	Z17	X18	Y18	Z18	X19	Y19	Z19	

377	3.760										-161.67818	879.43671	-1020.54669	-649.57611	1503.37390	-1077.08972				-479.82318	1436.50061	-1118.64746	-565.63379	1680.91602	-1162.48108	-792.35474	1161.92200	-1153.77148	-234.59100	1152.43616	-901.67365	-700.07684	920.20447	-1331.62439	-552.65411	1025.45056	-926.95190				-316.10187	1010.57770	-1042.82397				-650.57642	515.21741	-1088.93909	-241.43823	573.21539	-1163.19275	-653.62006	34.18752	-912.82233	-318.88248	61.24754	-1092.05920	
378	3.770										-161.18137	874.40472	-1019.14117	-644.99426	1502.56482	-1086.81482				-475.21323	1435.33923	-1127.58350	-560.53540	1680.33130	-1171.22253	-786.61475	1161.40698	-1165.21948	-232.72662	1150.16675	-908.32898	-691.15424	922.59680	-1344.34558	-548.39740	1022.34558	-939.86676				-311.96021	1008.84711	-1051.29688				-648.20032	514.84607	-1092.56262	-238.36690	570.27728	-1169.85376	-653.15631	34.32166	-912.60089	-299.84586	52.77599	-1122.27332	
379	3.780										-159.60033	869.32404	-1019.77191	-640.28754	1501.26245	-1094.86597				-470.59390	1434.13098	-1136.41711	-555.35468	1679.66907	-1179.66821	-779.78912	1160.39404	-1176.95740	-230.99007	1148.36292	-913.79572	-681.63513	924.66522	-1358.98157	-543.47522	1022.85742	-948.10223				-308.37262	1006.67566	-1059.64490				-646.22156	514.13513	-1095.66150	-236.45139	566.86359	-1177.57031	-653.11627	34.38391	-912.56158	-280.80255	47.00336	-1150.98242	
380	3.790										-158.09282	864.32111	-1019.44489	-635.49799	1500.07336	-1104.78210				-465.77319	1432.94202	-1144.89050	-550.05432	1678.82764	-1187.68994	-774.40533	1159.61108	-1187.21973	-229.22766	1147.29663	-921.42218	-672.95062	927.14471	-1372.34534	-539.83557	1023.03479	-949.19061				-303.91904	1006.25708	-1069.14709				-644.09528	513.89331	-1099.06470	-234.81874	562.17511	-1183.65344	-652.93768	34.84270	-912.46368	-262.17834	42.67329	-1179.94958	
381	3.800										-157.07307	859.51563	-1018.37366	-630.56525	1498.90210	-1112.43970				-460.86017	1431.31714	-1153.55566	-544.89746	1677.58484	-1196.27417	-768.17224	1158.45117	-1198.71008	-227.22314	1144.91736	-927.51953				-534.37006	1019.77258	-967.87958				-299.21811	1004.56519	-1078.35229				-642.15662	513.32831	-1102.38843	-233.38010	557.66302	-1188.43274	-652.47687	35.06448	-912.25433	-244.95181	40.05033	-1208.14526	
382	3.810										-155.48289	856.63733	-1019.56866	-625.45618	1497.29419	-1121.19507				-455.74103	1429.83813	-1162.09363	-539.62476	1676.42749	-1204.13147	-762.35443	1157.71619	-1209.44092	-223.54681	1142.84802	-932.44147	-654.30682	931.14496	-1398.19031	-530.29755	1019.47156	-975.20392				-293.71695	1003.05450	-1089.51257				-639.88177	512.81586	-1105.94312	-232.35667	552.31555	-1194.02563	-652.48657	35.06440	-912.26660	-227.67917	38.07221	-1235.47668	
383	3.820										-154.07912	852.53778	-1022.06378	-620.21973	1495.86780	-1130.10876				-450.60681	1428.26001	-1170.77393	-534.38055	1675.14893	-1212.10034	-755.62939	1156.18933	-1219.84192	-221.39670	1140.43005	-939.20441	-644.90875	935.61572	-1415.69031	-525.22607	1018.71307	-980.75488				-289.42444	1000.74542	-1099.51819				-637.59656	511.69983	-1109.74316	-231.24489	546.67834	-1199.09839	-652.24219	34.88335	-914.49011	-210.84152	38.71743	-1259.48914	
384	3.830										-152.09656	848.94476	-1022.82483	-614.73431	1494.25256	-1137.68274				-445.29816	1426.62256	-1179.40088	-529.12268	1673.78442	-1219.83984	-749.05145	1154.92810	-1230.17615	-218.94608	1138.53784	-948.20435	-635.99176	935.38489	-1424.69153	-520.03802	1017.71710	-989.98578				-284.42447	997.20862	-1108.21069				-634.88440	510.62167	-1113.36401	-230.42596	540.77869	-1203.90344	-652.35205	30.19858	-925.15173	-197.80919	39.03439	-1284.02258	
385	3.840										-150.20906	844.50409	-1024.51929	-609.39832	1492.22961	-1146.13647				-439.92145	1424.84875	-1188.02234	-523.89594	1672.37732	-1227.56860	-742.83850	1153.25977	-1240.33337	-214.33511	1137.56519	-951.18750	-626.97131	937.39758	-1437.98938	-514.61426	1014.89374	-1004.08228				-279.11951	995.19110	-1119.50500				-632.12164	510.07840	-1117.69177	-226.50511	536.68878	-1211.32678	-652.22516	30.48668	-924.63373	-185.76598	40.23570	-1307.47791	
386	3.850										-148.31320	841.85883	-1028.70190	-603.90167	1490.04614	-1153.94678				-434.40128	1423.16296	-1197.04456	-518.70752	1670.66272	-1234.89673	-735.85480	1151.13391	-1250.42163	-211.03903	1134.69202	-956.45392	-618.25494	937.12500	-1447.19641	-508.04211	1014.12982	-1006.77301	-594.13232	989.09222	-1225.69421	-274.66684	992.35205	-1129.14844				-629.77405	509.35989	-1122.56653	-221.39154	532.16302	-1215.97925	-652.14203	35.73772	-916.68494	-174.80876	39.72787	-1329.03857	
387	3.860										-145.68050	839.57721	-1033.36890	-598.27399	1488.12585	-1162.24902				-428.69736	1421.48889	-1205.36682	-513.38593	1669.38416	-1242.48486	-728.99756	1149.38635	-1260.01404	-207.38458	1131.59253	-962.62634	-609.43488	938.58636	-1460.08765	-501.37668	1012.16577	-1020.58215	-589.28363	987.87988	-1234.76648	-269.95810	990.11816	-1140.02087				-627.33777	509.00894	-1128.22327	-216.21399	529.14093	-1224.57361	-651.13934	38.57805	-916.52087	-165.86180	39.60860	-1345.73584	
388	3.870										-142.54051	835.55786	-1036.29236	-592.61841	1485.97327	-1170.03052				-423.04517	1419.38855	-1213.78040	-508.09247	1667.82263	-1250.21265	-722.81470	1147.80469	-1269.64783	-204.07057	1130.74951	-969.30182	-600.71063	937.63123	-1468.27698	-495.25433	1011.96112	-1025.56470	-584.51526	986.09827	-1243.35339	-264.88727	985.68054	-1147.71753				-624.95776	508.25357	-1134.17444	-210.27435	525.63177	-1233.17004	-650.98596	39.80165	-916.26288	-159.54684	36.96444	-1365.39307	
389	3.880										-139.52583	832.72235	-1040.93982	-586.90601	1483.71521	-1178.14355				-417.25650	1417.45154	-1223.14392	-502.74619	1666.21704	-1256.95862	-715.06940	1145.10950	-1278.00195	-200.19127	1127.47083	-975.59125	-591.78723	938.65698	-1480.24121	-488.16983	1008.33606	-1038.38147	-579.63409	983.96130	-1251.50415	-259.71381	983.28876	-1158.81201				-622.29175	506.94336	-1140.48682	-204.07918	524.33429	-1242.68591	-650.75684	41.00195	-916.09607	-152.73186	35.00892	-1377.16296	
390	3.890										-136.01234	830.97217	-1046.86963	-581.02228	1481.82153	-1186.76355				-411.30234	1415.16174	-1231.06189	-497.37079	1664.71509	-1263.76880	-708.70361	1143.35168	-1287.34888	-194.32498	1126.42566	-980.41681	-583.47205	937.77460	-1488.93457	-481.10504	1007.60541	-1043.17908	-574.13037	982.27502	-1259.60889	-254.08395	981.04803	-1169.62671				-619.00543	505.61026	-1147.42102	-198.68793	523.03882	-1255.76880	-650.67603	41.24574	-917.79437	-148.38272	32.96620	-1385.09497	
